<mxfile host="65bd71144e">
    <diagram id="6fwBwJ9eHw_QXzeVGo8t" name="Page-1">
        <mxGraphModel dx="2059" dy="598" grid="1" gridSize="10" guides="1" tooltips="1" connect="1" arrows="1" fold="1" page="1" pageScale="1" pageWidth="827" pageHeight="1169" math="0" shadow="0">
            <root>
                <mxCell id="0"/>
                <mxCell id="1" parent="0"/>
                <mxCell id="3" value="" style="rounded=0;whiteSpace=wrap;html=1;fillColor=#ffe6cc;strokeColor=#d79b00;opacity=40;" parent="1" vertex="1">
                    <mxGeometry y="520" width="660" height="410" as="geometry"/>
                </mxCell>
                <mxCell id="4" value="" style="rounded=0;whiteSpace=wrap;html=1;fillColor=#dae8fc;opacity=50;strokeColor=#6c8ebf;" parent="1" vertex="1">
                    <mxGeometry x="130" y="550" width="510" height="280" as="geometry"/>
                </mxCell>
                <mxCell id="6" style="edgeStyle=orthogonalEdgeStyle;html=1;dashed=1;fillColor=#1ba1e2;strokeColor=default;strokeWidth=2;" parent="1" source="7" target="14" edge="1">
                    <mxGeometry relative="1" as="geometry">
                        <Array as="points">
                            <mxPoint x="520" y="610"/>
                            <mxPoint x="520" y="610"/>
                        </Array>
                    </mxGeometry>
                </mxCell>
                <mxCell id="7" value="ETM" style="rounded=0;whiteSpace=wrap;html=1;" parent="1" vertex="1">
                    <mxGeometry x="400" y="590" width="80" height="40" as="geometry"/>
                </mxCell>
                <mxCell id="8" style="edgeStyle=orthogonalEdgeStyle;html=1;dashed=1;fillColor=#f8cecc;strokeColor=#b85450;strokeWidth=2;" parent="1" source="9" target="11" edge="1">
                    <mxGeometry relative="1" as="geometry">
                        <Array as="points">
                            <mxPoint x="510" y="690"/>
                            <mxPoint x="510" y="730"/>
                        </Array>
                    </mxGeometry>
                </mxCell>
                <mxCell id="9" value="DWT" style="rounded=0;whiteSpace=wrap;html=1;fillColor=#f8cecc;strokeColor=#b85450;" parent="1" vertex="1">
                    <mxGeometry x="400" y="660" width="80" height="40" as="geometry"/>
                </mxCell>
                <mxCell id="10" style="edgeStyle=orthogonalEdgeStyle;html=1;dashed=1;fillColor=#f8cecc;strokeColor=#b85450;strokeWidth=2;" parent="1" source="11" target="14" edge="1">
                    <mxGeometry relative="1" as="geometry">
                        <Array as="points">
                            <mxPoint x="600" y="750"/>
                        </Array>
                    </mxGeometry>
                </mxCell>
                <mxCell id="11" value="ITM" style="rounded=0;whiteSpace=wrap;html=1;" parent="1" vertex="1">
                    <mxGeometry x="400" y="720" width="80" height="40" as="geometry"/>
                </mxCell>
                <mxCell id="12" value="FPB" style="rounded=0;whiteSpace=wrap;html=1;" parent="1" vertex="1">
                    <mxGeometry x="400" y="780" width="80" height="40" as="geometry"/>
                </mxCell>
                <mxCell id="13" value="&lt;b&gt;&lt;i&gt;Serial Wire Output (SWO)&lt;br&gt;&lt;/i&gt;&lt;/b&gt;" style="edgeStyle=orthogonalEdgeStyle;sketch=0;html=1;shadow=0;startArrow=none;startFill=0;endArrow=classic;endFill=1;startSize=8;endSize=7;strokeWidth=2;fillColor=#f8cecc;exitX=1;exitY=0.25;exitDx=0;exitDy=0;dashed=1;strokeColor=#b85450;" parent="1" source="14" target="29" edge="1">
                    <mxGeometry x="-0.1348" relative="1" as="geometry">
                        <Array as="points">
                            <mxPoint x="630" y="600"/>
                            <mxPoint x="630" y="570"/>
                            <mxPoint x="160" y="570"/>
                            <mxPoint x="160" y="680"/>
                        </Array>
                        <mxPoint as="offset"/>
                    </mxGeometry>
                </mxCell>
                <mxCell id="14" value="TPIU" style="rounded=0;whiteSpace=wrap;html=1;" parent="1" vertex="1">
                    <mxGeometry x="540" y="590" width="80" height="40" as="geometry"/>
                </mxCell>
                <mxCell id="15" value="Processor Core" style="rounded=0;whiteSpace=wrap;html=1;" parent="1" vertex="1">
                    <mxGeometry x="200" y="610" width="120" height="60" as="geometry"/>
                </mxCell>
                <mxCell id="16" style="edgeStyle=orthogonalEdgeStyle;sketch=0;html=1;shadow=0;startSize=8;endSize=7;strokeWidth=3;fillColor=none;" parent="1" source="17" target="11" edge="1">
                    <mxGeometry relative="1" as="geometry"/>
                </mxCell>
                <mxCell id="17" value="Internal Bus" style="rounded=0;whiteSpace=wrap;html=1;" parent="1" vertex="1">
                    <mxGeometry x="220" y="720" width="80" height="40" as="geometry"/>
                </mxCell>
                <mxCell id="18" value="" style="shape=flexArrow;endArrow=classic;html=1;endSize=7;startSize=8;shadow=0;sketch=0;strokeWidth=1;fillColor=default;" parent="1" source="15" target="17" edge="1">
                    <mxGeometry width="50" height="50" relative="1" as="geometry">
                        <mxPoint x="450" y="710" as="sourcePoint"/>
                        <mxPoint x="500" y="660" as="targetPoint"/>
                    </mxGeometry>
                </mxCell>
                <mxCell id="19" style="edgeStyle=orthogonalEdgeStyle;sketch=0;html=1;shadow=0;startSize=8;endSize=7;strokeWidth=3;fillColor=none;" parent="1" source="17" target="12" edge="1">
                    <mxGeometry relative="1" as="geometry">
                        <mxPoint x="310" y="750" as="sourcePoint"/>
                        <mxPoint x="410" y="750" as="targetPoint"/>
                        <Array as="points">
                            <mxPoint x="360" y="740"/>
                            <mxPoint x="360" y="800"/>
                        </Array>
                    </mxGeometry>
                </mxCell>
                <mxCell id="20" style="edgeStyle=orthogonalEdgeStyle;sketch=0;html=1;shadow=0;startSize=8;endSize=7;strokeWidth=3;fillColor=none;" parent="1" target="9" edge="1">
                    <mxGeometry relative="1" as="geometry">
                        <mxPoint x="300" y="740" as="sourcePoint"/>
                        <mxPoint x="400" y="800" as="targetPoint"/>
                        <Array as="points">
                            <mxPoint x="360" y="740"/>
                            <mxPoint x="360" y="680"/>
                        </Array>
                    </mxGeometry>
                </mxCell>
                <mxCell id="21" style="edgeStyle=orthogonalEdgeStyle;sketch=0;html=1;shadow=0;startSize=8;endSize=7;strokeWidth=3;fillColor=none;" parent="1" source="17" target="7" edge="1">
                    <mxGeometry relative="1" as="geometry">
                        <mxPoint x="310" y="750" as="sourcePoint"/>
                        <mxPoint x="410" y="680" as="targetPoint"/>
                        <Array as="points">
                            <mxPoint x="360" y="740"/>
                            <mxPoint x="360" y="610"/>
                        </Array>
                    </mxGeometry>
                </mxCell>
                <mxCell id="22" style="edgeStyle=orthogonalEdgeStyle;sketch=0;html=1;shadow=0;startSize=8;endSize=7;strokeWidth=3;fillColor=none;" parent="1" source="17" target="15" edge="1">
                    <mxGeometry relative="1" as="geometry">
                        <mxPoint x="310" y="750" as="sourcePoint"/>
                        <mxPoint x="410" y="620" as="targetPoint"/>
                        <Array as="points">
                            <mxPoint x="360" y="740"/>
                            <mxPoint x="360" y="640"/>
                        </Array>
                    </mxGeometry>
                </mxCell>
                <mxCell id="23" value="&lt;b&gt;&lt;font style=&quot;font-size: 14px&quot;&gt;Cortex-M3/M4 processor&lt;/font&gt;&lt;/b&gt;" style="text;html=1;align=center;verticalAlign=middle;resizable=0;points=[];autosize=1;strokeColor=none;fillColor=none;strokeWidth=1;" parent="1" vertex="1">
                    <mxGeometry x="130" y="550" width="180" height="20" as="geometry"/>
                </mxCell>
                <mxCell id="24" value="&lt;b&gt;&lt;font style=&quot;font-size: 14px&quot;&gt;Microcontroller&lt;/font&gt;&lt;/b&gt;" style="text;html=1;align=center;verticalAlign=middle;resizable=0;points=[];autosize=1;strokeColor=none;fillColor=none;strokeWidth=1;" parent="1" vertex="1">
                    <mxGeometry x="485" y="850" width="120" height="20" as="geometry"/>
                </mxCell>
                <mxCell id="25" value="&lt;b&gt;&lt;i&gt;JTAG/&lt;br&gt;&amp;nbsp;SWD&lt;/i&gt;&lt;/b&gt;" style="edgeStyle=orthogonalEdgeStyle;sketch=0;html=1;shadow=0;endArrow=classic;endFill=1;startSize=8;endSize=7;strokeWidth=1;fillColor=default;startArrow=classic;startFill=1;" parent="1" source="26" target="29" edge="1">
                    <mxGeometry y="-20" relative="1" as="geometry">
                        <Array as="points">
                            <mxPoint x="120" y="740"/>
                            <mxPoint x="120" y="740"/>
                        </Array>
                        <mxPoint as="offset"/>
                    </mxGeometry>
                </mxCell>
                <mxCell id="26" value="Bridge" style="rounded=0;whiteSpace=wrap;html=1;" parent="1" vertex="1">
                    <mxGeometry x="150" y="720" width="50" height="40" as="geometry"/>
                </mxCell>
                <mxCell id="27" style="edgeStyle=orthogonalEdgeStyle;sketch=0;html=1;exitX=0;exitY=0.5;exitDx=0;exitDy=0;shadow=0;startSize=8;endSize=7;strokeWidth=3;fillColor=default;endArrow=none;endFill=0;" parent="1" source="17" target="26" edge="1">
                    <mxGeometry relative="1" as="geometry"/>
                </mxCell>
                <mxCell id="28" value="" style="group" parent="1" vertex="1" connectable="0">
                    <mxGeometry x="50" y="640" width="50" height="120" as="geometry"/>
                </mxCell>
                <mxCell id="29" value="" style="rounded=0;whiteSpace=wrap;html=1;" parent="28" vertex="1">
                    <mxGeometry width="50" height="120" as="geometry"/>
                </mxCell>
                <mxCell id="30" value="Connector" style="text;html=1;align=center;verticalAlign=middle;resizable=0;points=[];autosize=1;strokeColor=none;fillColor=none;rotation=-90;" parent="28" vertex="1">
                    <mxGeometry x="-10" y="50" width="70" height="20" as="geometry"/>
                </mxCell>
                <mxCell id="36" value="" style="shape=flexArrow;endArrow=classic;html=1;endSize=7;startSize=8;shadow=0;sketch=0;strokeWidth=1;fillColor=default;" parent="1" edge="1">
                    <mxGeometry width="50" height="50" relative="1" as="geometry">
                        <mxPoint x="260" y="760" as="sourcePoint"/>
                        <mxPoint x="260" y="860" as="targetPoint"/>
                    </mxGeometry>
                </mxCell>
                <mxCell id="37" value="Peripheral&lt;br&gt;32 Bit TIMER" style="rounded=0;whiteSpace=wrap;html=1;fillColor=#f8cecc;strokeColor=#b85450;" parent="1" vertex="1">
                    <mxGeometry x="200" y="860" width="120" height="60" as="geometry"/>
                </mxCell>
                <mxCell id="38" value="" style="edgeStyle=orthogonalEdgeStyle;sketch=0;html=1;shadow=0;startArrow=none;startFill=0;endArrow=classic;endFill=1;startSize=8;endSize=7;strokeWidth=2;fillColor=#f8cecc;dashed=1;strokeColor=#b85450;" parent="1" source="29" target="37" edge="1">
                    <mxGeometry x="0.5238" relative="1" as="geometry">
                        <mxPoint x="630" y="630" as="sourcePoint"/>
                        <mxPoint x="112" y="664.52" as="targetPoint"/>
                        <Array as="points">
                            <mxPoint x="-30" y="700"/>
                            <mxPoint x="-30" y="960"/>
                            <mxPoint x="260" y="960"/>
                        </Array>
                        <mxPoint as="offset"/>
                    </mxGeometry>
                </mxCell>
                <mxCell id="62" value="" style="shape=trapezoid;perimeter=trapezoidPerimeter;whiteSpace=wrap;html=1;fixedSize=1;fontSize=10;rotation=90;size=30;" parent="1" vertex="1">
                    <mxGeometry x="320" y="650" width="100" height="60" as="geometry"/>
                </mxCell>
                <mxCell id="61" value="" style="group" parent="1" vertex="1" connectable="0">
                    <mxGeometry x="180" y="590" width="190" height="190" as="geometry"/>
                </mxCell>
                <mxCell id="50" value="" style="ellipse;whiteSpace=wrap;html=1;aspect=fixed;fontSize=10;fillColor=default;" parent="61" vertex="1">
                    <mxGeometry width="190" height="190" as="geometry"/>
                </mxCell>
                <mxCell id="51" value="" style="curved=1;endArrow=classic;html=1;fillColor=#f8cecc;strokeColor=#b85450;" parent="61" edge="1">
                    <mxGeometry width="50" height="50" relative="1" as="geometry">
                        <mxPoint x="92" y="66" as="sourcePoint"/>
                        <mxPoint x="160" y="74.54000000000002" as="targetPoint"/>
                        <Array as="points">
                            <mxPoint x="110" y="40"/>
                        </Array>
                    </mxGeometry>
                </mxCell>
                <mxCell id="52" value="" style="shape=cube;whiteSpace=wrap;html=1;boundedLbl=1;backgroundOutline=1;darkOpacity=0.05;darkOpacity2=0.1;fontSize=10;fillColor=#f8cecc;size=10;strokeColor=#b85450;" parent="61" vertex="1">
                    <mxGeometry x="150" y="77.5" width="30" height="27.5" as="geometry"/>
                </mxCell>
                <mxCell id="53" value="" style="pointerEvents=1;shadow=0;dashed=0;html=1;strokeColor=none;fillColor=#434445;labelPosition=center;verticalLabelPosition=bottom;verticalAlign=top;align=center;outlineConnect=0;shape=mxgraph.veeam.ram;" parent="61" vertex="1">
                    <mxGeometry x="31.890000000000043" y="51.89999999999998" width="38.52" height="20.6" as="geometry"/>
                </mxCell>
                <mxCell id="54" style="edgeStyle=none;html=1;dashed=1;" parent="61" source="56" target="53" edge="1">
                    <mxGeometry relative="1" as="geometry"/>
                </mxCell>
                <mxCell id="55" value="" style="html=1;verticalLabelPosition=bottom;align=center;labelBackgroundColor=#ffffff;verticalAlign=top;strokeWidth=2;strokeColor=#0080F0;shadow=0;dashed=0;shape=mxgraph.ios7.icons.eye;fillColor=none;" parent="61" vertex="1">
                    <mxGeometry x="66.79000000000002" y="77.5" width="33.21" height="12.5" as="geometry"/>
                </mxCell>
                <mxCell id="56" value="" style="sketch=0;pointerEvents=1;shadow=0;dashed=0;html=1;strokeColor=none;fillColor=#434445;aspect=fixed;labelPosition=center;verticalLabelPosition=bottom;verticalAlign=top;align=center;outlineConnect=0;shape=mxgraph.vvd.cpu;" parent="61" vertex="1">
                    <mxGeometry x="38.75" y="102.69999999999999" width="24.8" height="24.8" as="geometry"/>
                </mxCell>
                <mxCell id="57" value="&lt;font style=&quot;font-size: 10px&quot;&gt;Profiling Counter&lt;/font&gt;" style="text;html=1;align=center;verticalAlign=middle;resizable=0;points=[];autosize=1;strokeColor=none;fillColor=none;" parent="61" vertex="1">
                    <mxGeometry x="36.88934426229508" y="140" width="90" height="20" as="geometry"/>
                </mxCell>
                <mxCell id="58" value="&lt;font style=&quot;font-size: 10px&quot;&gt;Comparator&lt;/font&gt;" style="text;html=1;align=center;verticalAlign=middle;resizable=0;points=[];autosize=1;strokeColor=none;fillColor=none;fontSize=14;" parent="61" vertex="1">
                    <mxGeometry x="56.89393442622952" y="90" width="70" height="20" as="geometry"/>
                </mxCell>
                <mxCell id="59" value="" style="aspect=fixed;html=1;points=[];align=center;image;fontSize=12;image=img/lib/azure2/general/Counter.svg;" parent="61" vertex="1">
                    <mxGeometry x="57.5" y="120" width="20.06" height="16.3" as="geometry"/>
                </mxCell>
                <mxCell id="60" value="" style="curved=1;endArrow=classic;html=1;fillColor=#f8cecc;strokeColor=#b85450;" parent="61" target="52" edge="1">
                    <mxGeometry width="50" height="50" relative="1" as="geometry">
                        <mxPoint x="87" y="129" as="sourcePoint"/>
                        <mxPoint x="187.28747252747235" y="172.39999999999998" as="targetPoint"/>
                        <Array as="points">
                            <mxPoint x="150" y="140"/>
                        </Array>
                    </mxGeometry>
                </mxCell>
                <mxCell id="63" value="" style="endArrow=classic;html=1;dashed=1;" edge="1" parent="1">
                    <mxGeometry width="50" height="50" relative="1" as="geometry">
                        <mxPoint x="60" y="1120" as="sourcePoint"/>
                        <mxPoint x="60" y="990" as="targetPoint"/>
                    </mxGeometry>
                </mxCell>
                <mxCell id="64" value="" style="endArrow=classic;html=1;dashed=1;" edge="1" parent="1">
                    <mxGeometry width="50" height="50" relative="1" as="geometry">
                        <mxPoint x="60" y="1120" as="sourcePoint"/>
                        <mxPoint x="610" y="1120" as="targetPoint"/>
                    </mxGeometry>
                </mxCell>
                <mxCell id="65" value="T1" style="rounded=0;whiteSpace=wrap;html=1;fillColor=#fff2cc;strokeColor=#d6b656;" vertex="1" parent="1">
                    <mxGeometry x="80" y="1050" width="200" height="60" as="geometry"/>
                </mxCell>
                <mxCell id="66" value="T2" style="rounded=0;whiteSpace=wrap;html=1;fillColor=#dae8fc;strokeColor=#6c8ebf;" vertex="1" parent="1">
                    <mxGeometry x="280" y="1050" width="30" height="60" as="geometry"/>
                </mxCell>
                <mxCell id="67" value="T1" style="rounded=0;whiteSpace=wrap;html=1;fillColor=#fff2cc;strokeColor=#d6b656;" vertex="1" parent="1">
                    <mxGeometry x="310" y="1050" width="270" height="60" as="geometry"/>
                </mxCell>
                <mxCell id="69" value="P1.1" style="rounded=0;whiteSpace=wrap;html=1;fillColor=#fff2cc;strokeColor=#d6b656;" vertex="1" parent="1">
                    <mxGeometry x="240" y="1010" width="60" height="30" as="geometry"/>
                </mxCell>
                <mxCell id="70" value="P2.1" style="rounded=0;whiteSpace=wrap;html=1;fillColor=#dae8fc;strokeColor=#6c8ebf;" vertex="1" parent="1">
                    <mxGeometry x="300" y="1010" width="60" height="30" as="geometry"/>
                </mxCell>
                <mxCell id="71" value="P1.2" style="rounded=0;whiteSpace=wrap;html=1;fillColor=#fff2cc;strokeColor=#d6b656;" vertex="1" parent="1">
                    <mxGeometry x="360" y="1010" width="60" height="30" as="geometry"/>
                </mxCell>
                <mxCell id="72" value="t" style="text;html=1;align=center;verticalAlign=middle;resizable=0;points=[];autosize=1;strokeColor=none;fillColor=none;" vertex="1" parent="1">
                    <mxGeometry x="610" y="1100" width="20" height="20" as="geometry"/>
                </mxCell>
                <mxCell id="75" value="Packets" style="text;html=1;align=center;verticalAlign=middle;resizable=0;points=[];autosize=1;strokeColor=#666666;fillColor=#f5f5f5;fontColor=#333333;" vertex="1" parent="1">
                    <mxGeometry x="-10" y="1010" width="60" height="20" as="geometry"/>
                </mxCell>
                <mxCell id="77" value="Tasks" style="text;html=1;align=center;verticalAlign=middle;resizable=0;points=[];autosize=1;strokeColor=#666666;fillColor=#f5f5f5;fontColor=#333333;" vertex="1" parent="1">
                    <mxGeometry x="-10" y="1070" width="50" height="20" as="geometry"/>
                </mxCell>
            </root>
        </mxGraphModel>
    </diagram>
</mxfile>